<svg width="33" height="32" viewBox="0 0 33 32" fill="none" xmlns="http://www.w3.org/2000/svg">
<path d="M32.0026 17.3988C31.8567 17.6731 31.8932 17.9748 31.8476 18.2674C31.4464 21.2388 30.2699 23.8536 28.3913 26.1759C26.4672 28.5531 24.0596 30.2262 21.1779 31.2228C20.4757 31.4696 19.9924 31.1222 19.9924 30.3816C19.9833 28.9828 19.9924 27.5839 19.9924 26.1851C19.9924 25.3439 19.9012 24.5211 19.4543 23.7714C19.3175 23.5428 19.1443 23.3416 18.9163 23.1131C19.7553 23.0034 20.5487 22.9028 21.3056 22.6559C22.7464 22.1896 24.0505 21.4948 24.926 20.1965C25.6373 19.1451 25.9747 17.9565 26.1206 16.7131C26.2392 15.6891 26.2756 14.6559 26.0294 13.6319C25.8014 12.6811 25.3728 11.8308 24.7345 11.0994C24.5977 10.9439 24.5886 10.8159 24.6524 10.6331C25.1084 9.3165 24.9169 8.02736 24.4518 6.74735C24.4062 6.61935 24.315 6.61021 24.2055 6.60107C23.6401 6.52793 23.1203 6.71078 22.6005 6.91193C21.7707 7.23193 20.9864 7.63421 20.2568 8.12793C20.0744 8.25593 19.9103 8.26507 19.7006 8.21021C17.2383 7.5885 14.7761 7.57935 12.323 8.21021C12.0858 8.27421 11.9126 8.23764 11.712 8.10964C10.7271 7.45135 9.6692 6.95764 8.52016 6.66507C7.71765 6.46393 7.57174 6.55535 7.34376 7.35078C7.02458 8.4845 6.96986 9.60907 7.38023 10.7336C7.43495 10.8799 7.38935 10.9622 7.29816 11.0628C6.20383 12.3154 5.75698 13.7874 5.79346 15.4422C5.82994 16.9965 6.10352 18.4868 6.86043 19.8582C7.48055 20.9736 8.43809 21.6868 9.55977 22.2262C10.6541 22.7565 11.8305 22.9576 13.0616 23.1131C12.7151 23.4971 12.4141 23.8994 12.2682 24.3839C12.2226 24.5394 12.1406 24.7039 12.1406 24.8594C12.1314 25.2068 11.9491 25.3439 11.6481 25.4262C10.6359 25.7005 9.63273 25.8834 8.66607 25.2891C8.1645 24.9874 7.79061 24.5576 7.49879 24.0548C7.0337 23.2594 6.38622 22.6925 5.51076 22.3908C5.2007 22.2811 4.88152 22.2445 4.56234 22.3085C4.22492 22.3816 4.18844 22.4914 4.37083 22.7839C4.48938 22.9668 4.63529 23.1131 4.81768 23.2136C5.66579 23.6891 6.13088 24.4662 6.51389 25.3165C6.74188 25.8194 6.9425 26.3314 7.36199 26.7154C8.02771 27.3188 8.83934 27.5291 9.70568 27.6114C10.4079 27.6754 11.101 27.6754 11.7849 27.5382C11.9855 27.5016 12.0311 27.5474 12.0311 27.7485C12.0311 28.6171 12.0494 29.4856 12.0585 30.3451C12.0585 31.1131 11.5569 31.4605 10.8274 31.2136C7.01546 29.8971 4.13373 27.4559 2.11834 23.9725C0.358291 20.9554 -0.307426 17.6822 0.130305 14.2262C0.914574 8.06393 4.24316 3.7485 9.86071 1.22507C12.3321 0.118783 14.9585 -0.173788 17.6487 0.0913544C21.7889 0.511926 25.236 2.32221 27.9901 5.4125C30.0693 7.74393 31.346 10.4776 31.8202 13.5862C31.8841 13.9976 31.8567 14.4274 32.0026 14.8296C32.0026 14.9576 32.0026 15.0765 32.0026 15.2045C31.9662 15.2411 31.9753 15.2868 31.9662 15.3325C31.9662 15.3782 31.957 15.4239 32.0026 15.4605C32.0026 15.7988 32.0026 16.1279 32.0026 16.4662C31.957 16.5119 31.9753 16.5668 31.9662 16.6216C31.9662 16.6765 31.9662 16.7314 31.9662 16.7862C31.9662 16.8411 31.9662 16.8959 31.9662 16.9508C31.9662 17.0056 31.9479 17.0605 32.0026 17.1062C32.0026 17.1885 32.0026 17.2982 32.0026 17.3988Z" fill="white"/>
</svg>
