<svg width="32" height="32" viewBox="0 0 32 32" fill="none" xmlns="http://www.w3.org/2000/svg">
<path fill-rule="evenodd" clip-rule="evenodd" d="M7.11909 4.40559C5.59956 4.40559 4.36332 5.64021 4.36332 7.15776C4.36332 8.6763 5.59956 9.91172 7.11909 9.91172C8.63565 9.91172 9.86946 8.6763 9.86946 7.15776C9.86946 5.64021 8.63565 4.40559 7.11909 4.40559ZM4.7392 11.9975V27.2685H9.48935L9.49115 11.9975H4.7392ZM12.4701 11.9962V27.2671L17.2094 27.269L17.2113 19.7126C17.2113 17.7731 17.5491 15.7906 20.0551 15.7906C22.523 15.7906 22.523 18.1302 22.523 19.8386V27.2671L27.2677 27.2654V18.8919C27.2677 15.1131 26.578 11.6164 21.5744 11.6164C19.2243 11.6164 17.6864 12.9447 17.0834 14.0824H17.0168L17.0169 11.9962H12.4701ZM29.6313 32H2.35977C1.05859 32 0 30.964 0 29.6907V2.30757C0 1.03517 1.05859 0 2.35977 0H29.6313C30.9374 0 32 1.03517 32 2.30757V29.6907C32 30.964 30.9374 32 29.6313 32Z" fill="white"/>
</svg>
