<svg width="498" height="113" viewBox="0 0 498 113" fill="none" xmlns="http://www.w3.org/2000/svg">
<path d="M82.8 4.9L80 4.8L0.5 0L7.30005 104.6L7.69995 111.8L45.3 109.7L113.6 105.8L115.2 34.2L115.9 7V6.9L82.8 4.9Z" fill="#FF8C00"/>
<path d="M115.9 6.99999C108.1 10.6 98.5 16.1 87.4 24.3C87.4 24.3 93.8 21.8 100.2 20.2C100.2 20.2 103.3 18.8 69 49.1C69 49.1 70.7 47.5 81 48.2C81 48.2 75.9 51.7 65.6 62.2C65.3 62 65 61.7 64.7 61.6C63.2 60.9 61.6 60.5 59.9 60.6C58.3 60.7 56.7 61.2 55.2 62.1L54.4 62.6L54.5 62C54.7 59.4 53.9 57 52.3 55.1C51.9 54.6 51.4 54.1 50.9 53.7C55.1 43.8 64.6 27.5 84 18.5C84 18.5 70.5 20.3 66.6 25.5C66.6 25.5 72.4 13.7 82.9 4.99999L80.1 4.79999C70.2 11 57.9 21.8 49.7 40C49.7 40 58.2 29.4 61.2 29.8C61.2 29.8 53 41.5 49.5 52.9C48.3 52.3 47 52 45.7 51.9H45.6C45.1 51.9 44.5 51.9 44 51.9C43.5 51.9 42.9 52 42.4 52.2C38.7 53.1 35.8 56.1 35.2 60C35.2 60.2 35.2 60.4 35.1 60.6V61.1C33.3 59.7 31.1 59 28.8 59C28.8 59 25.8 59 24.2 60.1C23.9 60.3 23.6 60.4 23.4 60.6C20.1 62.9 17.7 67.4 19.4 72.8L22.7 81.4L7.19995 104.8L7.69995 112.1L45.3 110L50.9 99.1H52.3C55.5 99 60.7 98.2 63.8 97.3C67.2 96.3 69.6 93.5 70.4 90.2C70.5 89.8 70.5 89.3 70.6 88.8C76.5 86.7 81.5 85.8 81.5 85.8C79.3 87.4 76.7 90.9 76.7 90.9C88.3 83.7 112.7 89.3 112.7 89.3C97.8 82 90.4 82.5 90.4 82.5C94.7 79.6 105.4 79 105.4 79C88.9 76.1 76.9 82.1 70.5 86.6C70.5 86.4 70.5 86.2 70.4 86L70.3 85.7C69.9 83.7 68.8 81.8 67.3 80.5C66.8 80.1 66.2 79.7 65.6 79.4C65.4 79.3 65.3 79.2 65.1 79.2L65.5 79C67.2 77.9 68.5 76.4 69.3 74.6C70.2 72.5 70.3 70 69.6 67.7C69.4 66.9 69 66.3 68.7 65.7C82 56.7 100 46.2 113.8 44.9C113.8 44.9 108.8 41.9 92.1 41.4C92.1 41.4 99 36.2 115.3 34.6L115.9 6.99999Z" fill="white"/>
<path d="M142.156 34.029H153.783L167.489 62.981L166.719 34.029H176.96V34.876C176.703 35.184 176.524 35.5177 176.421 35.877C176.37 36.2363 176.344 36.8523 176.344 37.725V82H165.718L151.781 51.123V82H142.156V34.029Z" fill="black"/>
<path d="M188.433 82.924C184.532 82.924 181.477 82 179.27 80.152C177.063 78.2527 175.959 75.763 175.959 72.683C175.959 70.7323 176.37 68.9357 177.191 67.293C178.012 65.599 179.296 64.136 181.041 62.904C182.786 61.6207 185.019 60.6197 187.74 59.901C190.461 59.1823 193.72 58.823 197.519 58.823C197.673 58.823 197.955 58.823 198.366 58.823C198.777 58.823 199.239 58.823 199.752 58.823C200.265 58.823 200.702 58.823 201.061 58.823L201.369 66.061C201.061 66.061 200.625 66.061 200.06 66.061C199.495 66.061 198.905 66.0867 198.289 66.138C197.724 66.138 197.288 66.138 196.98 66.138C194.773 66.138 193.002 66.292 191.667 66.6C190.332 66.8567 189.306 67.2417 188.587 67.755C187.92 68.217 187.458 68.756 187.201 69.372C186.944 69.9367 186.816 70.5013 186.816 71.066C186.816 71.682 186.919 72.221 187.124 72.683C187.329 73.145 187.612 73.5043 187.971 73.761C188.33 74.0177 188.767 74.223 189.28 74.377C189.793 74.4797 190.332 74.531 190.897 74.531C192.129 74.531 193.181 74.3257 194.054 73.915C194.927 73.5043 195.645 72.837 196.21 71.913C196.826 70.9377 197.262 69.7057 197.519 68.217C197.827 66.7283 197.981 64.906 197.981 62.75C197.981 60.132 197.724 58.13 197.211 56.744C196.749 55.358 196.056 54.434 195.132 53.972C194.259 53.4587 193.181 53.202 191.898 53.202C190.307 53.202 188.844 53.433 187.509 53.895C186.174 54.3057 184.763 55.281 183.274 56.821L177.114 50.507C179.424 48.4023 181.888 46.9393 184.506 46.118C187.175 45.2967 189.768 44.886 192.283 44.886C194.49 44.886 196.569 45.1427 198.52 45.656C200.522 46.118 202.293 46.9137 203.833 48.043C205.424 49.1723 206.656 50.738 207.529 52.74C208.453 54.6907 208.915 57.1547 208.915 60.132V82H197.904V79.151C197.237 79.767 196.569 80.3317 195.902 80.845C195.286 81.307 194.593 81.692 193.823 82C193.104 82.308 192.309 82.539 191.436 82.693C190.563 82.847 189.562 82.924 188.433 82.924Z" fill="black"/>
<path d="M223.622 82.924C222.133 82.924 220.722 82.7443 219.387 82.385C218.104 82.0257 216.923 81.461 215.845 80.691C214.818 79.921 213.92 78.9457 213.15 77.765C212.38 76.5843 211.79 75.1727 211.379 73.53C210.968 71.836 210.763 69.911 210.763 67.755V45.733H221.697V67.755C221.697 68.9357 221.774 69.9367 221.928 70.758C222.133 71.5793 222.416 72.2723 222.775 72.837C223.134 73.3503 223.545 73.7353 224.007 73.992C224.52 74.1973 225.059 74.3 225.624 74.3C226.599 74.3 227.446 74.146 228.165 73.838C228.935 73.53 229.551 73.068 230.013 72.452C230.526 71.7847 230.886 70.989 231.091 70.065C231.348 69.141 231.476 68.063 231.476 66.831V45.733H242.487V76.148C242.487 77.38 242.513 78.458 242.564 79.382C242.667 80.2547 242.898 81.1273 243.257 82H233.478C233.221 81.538 233.042 81.076 232.939 80.614C232.836 80.152 232.759 79.69 232.708 79.228C232.708 78.766 232.708 78.304 232.708 77.842C232.195 78.7147 231.579 79.4847 230.86 80.152C230.193 80.768 229.448 81.2813 228.627 81.692C227.857 82.1027 227.036 82.4107 226.163 82.616C225.342 82.8213 224.495 82.924 223.622 82.924Z" fill="black"/>
<path d="M259.581 96.091C257.014 96.091 254.704 95.8343 252.651 95.321C250.649 94.859 248.955 94.1917 247.569 93.319C246.183 92.4463 245.131 91.4197 244.412 90.239C243.693 89.0583 243.334 87.8007 243.334 86.466C243.334 85.3367 243.642 84.2587 244.258 83.232C244.874 82.2053 245.721 81.2813 246.799 80.46C247.877 79.5873 249.058 78.8943 250.341 78.381L255.346 80.152C254.781 80.614 254.14 81.076 253.421 81.538C252.754 81.9487 252.189 82.385 251.727 82.847C251.265 83.3603 251.034 83.9507 251.034 84.618C251.034 85.1827 251.291 85.6447 251.804 86.004C252.317 86.4147 253.01 86.7227 253.883 86.928C254.807 87.1847 255.834 87.3643 256.963 87.467C258.144 87.5697 259.401 87.621 260.736 87.621C262.43 87.621 263.893 87.4927 265.125 87.236C266.408 86.9793 267.384 86.5943 268.051 86.081C268.77 85.5677 269.129 84.9773 269.129 84.31C269.129 83.7453 268.924 83.309 268.513 83.001C268.102 82.693 267.435 82.462 266.511 82.308C265.587 82.2053 264.381 82.154 262.892 82.154C261.301 82.154 259.658 82.1027 257.964 82C256.321 81.846 254.73 81.5893 253.19 81.23C251.65 80.8707 250.238 80.383 248.955 79.767C247.723 79.151 246.748 78.381 246.029 77.457C245.31 76.4817 244.951 75.301 244.951 73.915C244.951 72.0157 245.541 70.45 246.722 69.218C247.903 67.9347 249.263 66.831 250.803 65.907L255.654 68.294C255.192 68.7047 254.73 69.0383 254.268 69.295C253.857 69.5003 253.498 69.7313 253.19 69.988C252.933 70.1933 252.805 70.5527 252.805 71.066C252.805 71.528 253.267 71.9387 254.191 72.298C255.115 72.6573 256.552 72.9397 258.503 73.145C260.454 73.299 262.969 73.376 266.049 73.376C268.051 73.376 269.771 73.6583 271.208 74.223C272.697 74.7363 273.903 75.4807 274.827 76.456C275.802 77.38 276.521 78.4323 276.983 79.613C277.445 80.7937 277.676 82.0513 277.676 83.386C277.676 84.9773 277.291 86.5173 276.521 88.006C275.802 89.546 274.673 90.9063 273.133 92.087C271.644 93.319 269.771 94.2943 267.512 95.013C265.253 95.7317 262.61 96.091 259.581 96.091ZM259.504 69.834C256.989 69.834 254.653 69.295 252.497 68.217C250.392 67.139 248.698 65.676 247.415 63.828C246.183 61.98 245.567 59.8753 245.567 57.514C245.567 55.1527 246.183 53.0223 247.415 51.123C248.698 49.2237 250.392 47.7093 252.497 46.58C254.653 45.4507 256.989 44.886 259.504 44.886C262.071 44.886 264.406 45.4507 266.511 46.58C268.616 47.7093 270.284 49.2237 271.516 51.123C272.799 53.0223 273.441 55.1527 273.441 57.514C273.441 59.8753 272.799 61.98 271.516 63.828C270.284 65.676 268.616 67.139 266.511 68.217C264.406 69.295 262.071 69.834 259.504 69.834ZM259.427 62.365C260.351 62.365 261.172 62.1853 261.891 61.826C262.61 61.4153 263.174 60.8507 263.585 60.132C264.047 59.362 264.278 58.4893 264.278 57.514C264.278 56.5387 264.047 55.7173 263.585 55.05C263.174 54.3827 262.584 53.8693 261.814 53.51C261.095 53.0993 260.3 52.894 259.427 52.894C258.708 52.894 257.99 53.0993 257.271 53.51C256.552 53.9207 255.936 54.4853 255.423 55.204C254.961 55.8713 254.73 56.6413 254.73 57.514C254.73 58.3867 254.935 59.208 255.346 59.978C255.808 60.6967 256.398 61.287 257.117 61.749C257.836 62.1597 258.606 62.365 259.427 62.365ZM271.208 52.894L267.127 47.735C268.564 46.811 270.284 46.0667 272.286 45.502C274.288 44.9373 276.341 44.732 278.446 44.886L279.37 51.816C277.933 51.4567 276.47 51.4053 274.981 51.662C273.492 51.8673 272.235 52.278 271.208 52.894Z" fill="black"/>
<path d="M278.831 30.025H290.458V30.872C290.201 31.18 290.022 31.5137 289.919 31.873C289.868 32.2323 289.842 32.8483 289.842 33.721V49.429C290.663 48.2997 291.613 47.427 292.691 46.811C293.769 46.1437 294.898 45.656 296.079 45.348C297.311 45.04 298.492 44.886 299.621 44.886C302.085 44.886 304.19 45.425 305.935 46.503C307.732 47.5297 309.118 49.1723 310.093 51.431C311.068 53.6897 311.556 56.6157 311.556 60.209V82H300.622V60.286C300.622 58.438 300.468 56.975 300.16 55.897C299.852 54.7677 299.39 53.972 298.774 53.51C298.209 53.048 297.465 52.817 296.541 52.817C295.668 52.817 294.873 52.9453 294.154 53.202C293.487 53.4587 292.871 53.818 292.306 54.28C291.793 54.742 291.331 55.3323 290.92 56.051C290.561 56.7183 290.278 57.4883 290.073 58.361C289.919 59.2337 289.842 60.1833 289.842 61.21V82H278.831V30.025Z" fill="black"/>
<path d="M332.423 82.924C330.524 82.924 328.778 82.616 327.187 82C325.596 81.4353 324.235 80.46 323.106 79.074C321.977 77.6367 321.13 75.686 320.565 73.222C320 70.758 319.795 67.6267 319.949 63.828L321.027 37.648L332.115 36.185L332.808 36.108L332.885 36.955C332.68 37.3143 332.474 37.6737 332.269 38.033C332.064 38.3923 331.935 39.0083 331.884 39.881L330.96 51.739H331.422L330.806 63.289C330.652 66.215 330.755 68.4993 331.114 70.142C331.525 71.7333 332.089 72.837 332.808 73.453C333.578 74.069 334.374 74.377 335.195 74.377C336.786 74.377 338.224 74.0433 339.507 73.376C340.842 72.7087 341.997 71.9643 342.972 71.143L344.82 78.766C343.075 80.0493 341.175 81.076 339.122 81.846C337.12 82.5647 334.887 82.924 332.423 82.924ZM313.327 45.733H342.433L342.279 54.203H313.173L313.327 45.733Z" fill="black"/>
<path d="M352.905 95.629C351.16 95.629 349.62 95.321 348.285 94.705C346.95 94.089 345.539 93.2163 344.05 92.087L347.515 84.618L347.746 84.002L348.516 84.31C348.721 84.6693 348.927 85.0543 349.132 85.465C349.337 85.8757 349.774 86.3377 350.441 86.851C350.749 87.0563 351.083 87.2103 351.442 87.313C351.853 87.4157 352.263 87.467 352.674 87.467C353.495 87.467 354.214 87.2103 354.83 86.697C355.446 86.235 356.036 85.4907 356.601 84.464C357.166 83.4373 357.756 82.077 358.372 80.383L366.842 57.591C367.612 55.4863 368.202 53.51 368.613 51.662C369.024 49.7627 369.229 47.7863 369.229 45.733H379.008C378.957 48.043 378.443 50.5327 377.468 53.202C376.544 55.82 375.646 58.284 374.773 60.594L365.841 84.541C364.301 88.6477 362.479 91.5223 360.374 93.165C358.269 94.8077 355.78 95.629 352.905 95.629ZM344.897 45.733H355.6L365.533 71.759L359.604 82.693L344.897 45.733Z" fill="black"/>
<path d="M415.215 82.924C412.597 82.924 410.107 82.4363 407.746 81.461C405.436 80.4857 403.383 78.997 401.586 76.995C399.789 74.993 398.378 72.452 397.351 69.372C396.376 66.2407 395.888 62.5447 395.888 58.284C395.888 54.5367 396.273 51.2513 397.043 48.428C397.864 45.6047 398.942 43.2177 400.277 41.267C401.663 39.3163 403.203 37.7507 404.897 36.57C406.642 35.338 408.439 34.4653 410.287 33.952C412.186 33.3873 414.06 33.105 415.908 33.105C419.655 33.105 422.838 33.9007 425.456 35.492C428.074 37.0833 430.102 39.3933 431.539 42.422L425.533 47.812L424.994 48.274L424.455 47.658C424.455 47.2473 424.404 46.8367 424.301 46.426C424.198 46.0153 423.916 45.4763 423.454 44.809C422.479 43.6797 421.426 42.9353 420.297 42.576C419.168 42.1653 418.013 41.96 416.832 41.96C415.703 41.96 414.548 42.2937 413.367 42.961C412.186 43.577 411.083 44.5523 410.056 45.887C409.081 47.1703 408.285 48.813 407.669 50.815C407.053 52.817 406.745 55.1783 406.745 57.899C406.745 60.517 406.95 62.827 407.361 64.829C407.823 66.831 408.439 68.525 409.209 69.911C410.03 71.2457 410.98 72.2723 412.058 72.991C413.187 73.6583 414.419 73.992 415.754 73.992C416.986 73.992 418.064 73.8637 418.988 73.607C419.912 73.3503 420.759 72.8627 421.529 72.144C422.299 71.4253 423.043 70.4243 423.762 69.141L431.154 74.762C429.203 77.8933 426.919 80.0493 424.301 81.23C421.683 82.3593 418.654 82.924 415.215 82.924Z" fill="black"/>
<path d="M442.473 82.924C438.572 82.924 435.517 82 433.31 80.152C431.103 78.2527 429.999 75.763 429.999 72.683C429.999 70.7323 430.41 68.9357 431.231 67.293C432.052 65.599 433.336 64.136 435.081 62.904C436.826 61.6207 439.059 60.6197 441.78 59.901C444.501 59.1823 447.76 58.823 451.559 58.823C451.713 58.823 451.995 58.823 452.406 58.823C452.817 58.823 453.279 58.823 453.792 58.823C454.305 58.823 454.742 58.823 455.101 58.823L455.409 66.061C455.101 66.061 454.665 66.061 454.1 66.061C453.535 66.061 452.945 66.0867 452.329 66.138C451.764 66.138 451.328 66.138 451.02 66.138C448.813 66.138 447.042 66.292 445.707 66.6C444.372 66.8567 443.346 67.2417 442.627 67.755C441.96 68.217 441.498 68.756 441.241 69.372C440.984 69.9367 440.856 70.5013 440.856 71.066C440.856 71.682 440.959 72.221 441.164 72.683C441.369 73.145 441.652 73.5043 442.011 73.761C442.37 74.0177 442.807 74.223 443.32 74.377C443.833 74.4797 444.372 74.531 444.937 74.531C446.169 74.531 447.221 74.3257 448.094 73.915C448.967 73.5043 449.685 72.837 450.25 71.913C450.866 70.9377 451.302 69.7057 451.559 68.217C451.867 66.7283 452.021 64.906 452.021 62.75C452.021 60.132 451.764 58.13 451.251 56.744C450.789 55.358 450.096 54.434 449.172 53.972C448.299 53.4587 447.221 53.202 445.938 53.202C444.347 53.202 442.884 53.433 441.549 53.895C440.214 54.3057 438.803 55.281 437.314 56.821L431.154 50.507C433.464 48.4023 435.928 46.9393 438.546 46.118C441.215 45.2967 443.808 44.886 446.323 44.886C448.53 44.886 450.609 45.1427 452.56 45.656C454.562 46.118 456.333 46.9137 457.873 48.043C459.464 49.1723 460.696 50.738 461.569 52.74C462.493 54.6907 462.955 57.1547 462.955 60.132V82H451.944V79.151C451.277 79.767 450.609 80.3317 449.942 80.845C449.326 81.307 448.633 81.692 447.863 82C447.144 82.308 446.349 82.539 445.476 82.693C444.603 82.847 443.602 82.924 442.473 82.924Z" fill="black"/>
<path d="M484.823 82.924C482.924 82.924 481.178 82.616 479.587 82C477.996 81.4353 476.635 80.46 475.506 79.074C474.377 77.6367 473.53 75.686 472.965 73.222C472.4 70.758 472.195 67.6267 472.349 63.828L473.427 37.648L484.515 36.185L485.208 36.108L485.285 36.955C485.08 37.3143 484.874 37.6737 484.669 38.033C484.464 38.3923 484.335 39.0083 484.284 39.881L483.36 51.739H483.822L483.206 63.289C483.052 66.215 483.155 68.4993 483.514 70.142C483.925 71.7333 484.489 72.837 485.208 73.453C485.978 74.069 486.774 74.377 487.595 74.377C489.186 74.377 490.624 74.0433 491.907 73.376C493.242 72.7087 494.397 71.9643 495.372 71.143L497.22 78.766C495.475 80.0493 493.575 81.076 491.522 81.846C489.52 82.5647 487.287 82.924 484.823 82.924ZM465.727 45.733H494.833L494.679 54.203H465.573L465.727 45.733Z" fill="black"/>
</svg>
